M48
; DRILL file {KiCad (5.1.5-0-10_14)} date 2020 February 16, Sunday 14:34:38
; FORMAT={-:-/ absolute / inch / decimal}
; #@! TF.CreationDate,2020-02-16T14:34:38+09:00
; #@! TF.GenerationSoftware,Kicad,Pcbnew,(5.1.5-0-10_14)
FMAT,2
INCH
T1C0.0157
T2C0.0315
T3C0.0354
T4C0.0394
T5C0.0400
T6C0.0512
T7C0.0551
T8C0.0630
T9C0.1260
T10C0.0433
%
G90
G05
T1
X3.975Y-2.075
X4.0604Y-2.5
X4.1195Y-2.425
X4.125Y-2.075
X4.175Y-2.075
X4.1777Y-2.35
X4.325Y-2.075
X4.5Y-5.35
X4.5Y-5.45
X4.525Y-4.0
X4.525Y-4.1
X4.55Y-3.95
X4.55Y-4.05
X4.6Y-3.9
X4.625Y-3.675
X4.625Y-3.725
X4.65Y-3.875
X5.5Y-2.6
X5.75Y-4.15
X5.8Y-5.375
X5.85Y-5.275
X5.9Y-2.325
X5.95Y-4.175
X6.075Y-2.5
X6.175Y-2.475
X6.275Y-2.575
X6.325Y-2.575
X6.375Y-2.575
X6.475Y-2.575
X6.5Y-3.05
X6.525Y-2.775
X6.525Y-2.85
X6.55Y-2.95
X6.55Y-3.2
X6.6Y-2.9
X6.65Y-3.2
X6.65Y-3.75
X6.7Y-3.8
X6.75Y-3.7
X6.8Y-3.775
X6.975Y-4.35
X7.15Y-2.75
X7.175Y-4.225
X7.175Y-5.275
X7.275Y-2.9
X7.725Y-3.25
X7.725Y-3.3
X7.875Y-4.45
X8.25Y-5.075
X8.25Y-5.35
X8.275Y-2.7
X8.3Y-2.65
T2
X4.8Y-4.4
X4.8Y-4.7
X6.775Y-2.95
X6.775Y-3.2453
X6.775Y-2.45
X6.775Y-2.85
X6.975Y-2.95
X6.975Y-3.2453
X7.1797Y-2.275
X7.475Y-2.275
X7.3Y-5.3
X7.6Y-5.3
X4.825Y-3.075
X4.825Y-3.175
X4.3Y-3.075
X4.3Y-3.175
X6.85Y-4.4
X6.85Y-4.7
X6.05Y-4.25
X6.15Y-4.25
X6.25Y-4.25
X6.35Y-4.25
X6.45Y-4.25
X6.55Y-4.25
X6.65Y-4.25
X6.75Y-4.25
X6.85Y-4.25
X4.0Y-3.075
X4.0Y-3.175
X4.4Y-4.05
X4.4Y-4.35
X7.3Y-5.1
X7.6Y-5.1
X3.55Y-3.075
X3.55Y-3.175
X6.25Y-4.4
X6.25Y-4.7
X5.25Y-4.4
X5.25Y-4.7
X7.1797Y-2.45
X7.475Y-2.45
X5.375Y-3.125
X5.675Y-3.125
X3.85Y-5.0
X3.85Y-5.3
X3.95Y-5.0
X3.95Y-5.3
X3.7Y-3.075
X3.7Y-3.175
X4.65Y-3.075
X4.65Y-3.175
X3.8297Y-5.425
X4.125Y-5.425
X4.1Y-5.0
X4.1Y-5.3
X6.7Y-4.4
X6.7Y-4.7
X4.15Y-3.075
X4.15Y-3.175
X5.1Y-4.4
X5.1Y-4.7
X5.7Y-2.25
X5.8Y-2.25
X5.9Y-2.25
X6.0Y-2.25
X6.1Y-2.25
X6.2Y-2.25
X6.3Y-2.25
X6.4Y-2.25
X6.5Y-2.25
X3.85Y-3.075
X3.85Y-3.175
X4.45Y-3.075
X4.45Y-3.175
X5.55Y-4.4
X5.55Y-4.7
X6.1Y-4.4
X6.1Y-4.7
X4.95Y-4.4
X4.95Y-4.7
X4.4Y-3.65
X4.4Y-3.95
X4.4Y-5.025
X4.4Y-5.325
X6.075Y-2.85
X6.2246Y-2.85
X6.55Y-4.4
X6.55Y-4.7
X5.025Y-3.075
X5.025Y-3.175
X5.4Y-4.4
X5.4Y-4.7
X6.975Y-2.45
X6.975Y-2.85
X6.4Y-4.4
X6.4Y-4.7
X4.75Y-4.25
X4.85Y-4.25
X4.95Y-4.25
X5.05Y-4.25
X5.15Y-4.25
X5.25Y-4.25
X5.35Y-4.25
X5.45Y-4.25
X5.55Y-4.25
T3
X5.825Y-3.125
X6.225Y-3.125
X7.7975Y-5.1
X7.7975Y-5.1984
X7.7975Y-5.2969
X4.4Y-4.525
X4.4Y-4.925
T4
X6.55Y-3.65
X4.8Y-4.825
X4.9Y-4.825
X5.0Y-4.825
X5.1Y-4.825
X5.2Y-4.825
X5.3Y-4.825
X5.4Y-4.825
X5.5Y-4.825
X5.6Y-4.825
X4.25Y-4.725
X4.25Y-4.825
X4.25Y-4.925
X4.25Y-5.025
X4.25Y-5.125
X6.4Y-3.2
X6.3Y-5.0
X6.3545Y-5.1118
X6.4091Y-5.0
X6.4636Y-5.1118
X6.5181Y-5.0
X6.5726Y-5.1118
X6.6272Y-5.0
X6.6817Y-5.1118
X6.7362Y-5.0
X6.1Y-4.825
X6.2Y-4.825
X6.3Y-4.825
X6.4Y-4.825
X6.5Y-4.825
X6.6Y-4.825
X6.7Y-4.825
X6.8Y-4.825
X6.9Y-4.825
X4.25Y-3.55
X4.25Y-3.65
X4.25Y-3.75
X4.25Y-3.85
X4.25Y-3.95
X5.675Y-2.575
X5.675Y-2.675
X5.675Y-2.975
X5.875Y-2.575
X5.875Y-2.675
X5.875Y-2.975
X5.2Y-3.35
X5.2Y-3.45
X5.2Y-3.55
X5.2Y-3.65
X5.2Y-3.75
X5.3Y-3.35
X5.3Y-3.45
X5.3Y-3.55
X5.3Y-3.65
X5.3Y-3.75
X5.4Y-3.35
X5.4Y-3.45
X5.4Y-3.55
X5.4Y-3.65
X5.4Y-3.75
X5.5Y-3.35
X5.5Y-3.45
X5.5Y-3.55
X5.5Y-3.65
X5.5Y-3.75
X5.6Y-3.35
X5.6Y-3.45
X5.6Y-3.55
X5.6Y-3.65
X5.6Y-3.75
X5.7Y-3.35
X5.7Y-3.45
X5.7Y-3.55
X5.7Y-3.65
X5.7Y-3.75
X5.8Y-3.35
X5.8Y-3.45
X5.8Y-3.55
X5.8Y-3.65
X5.8Y-3.75
X5.9Y-3.35
X5.9Y-3.45
X5.9Y-3.55
X5.9Y-3.65
X5.9Y-3.75
X6.0Y-3.35
X6.0Y-3.45
X6.0Y-3.55
X6.0Y-3.65
X6.0Y-3.75
X6.1Y-3.35
X6.1Y-3.45
X6.1Y-3.55
X6.1Y-3.65
X6.1Y-3.75
X6.2Y-3.35
X6.2Y-3.45
X6.2Y-3.55
X6.2Y-3.65
X6.2Y-3.75
X6.3Y-3.35
X6.3Y-3.45
X6.3Y-3.55
X6.3Y-3.65
X6.3Y-3.75
X6.4Y-3.35
X6.4Y-3.45
X6.4Y-3.55
X6.4Y-3.65
X6.4Y-3.75
X3.55Y-2.925
X3.65Y-2.925
X3.75Y-2.925
X3.85Y-2.925
X3.95Y-2.925
X4.05Y-2.925
X4.15Y-2.925
X4.25Y-2.925
X4.35Y-2.925
X4.45Y-2.925
X4.55Y-2.925
X4.65Y-2.925
X4.75Y-2.925
X4.85Y-2.925
X4.95Y-2.925
X5.05Y-2.925
X5.15Y-2.925
X5.25Y-2.925
X5.35Y-2.925
X7.7Y-2.45
X7.8Y-2.45
X7.9Y-2.45
X8.0Y-2.45
X5.0Y-5.0
X5.0545Y-5.1118
X5.1091Y-5.0
X5.1636Y-5.1118
X5.2181Y-5.0
X5.2726Y-5.1118
X5.3272Y-5.0
X5.3817Y-5.1118
X5.4362Y-5.0
X5.2Y-3.2
X8.0Y-5.2
T5
X8.15Y-2.8
X8.15Y-2.9
X8.15Y-3.0
X8.15Y-3.1
X8.15Y-3.2
X8.15Y-3.3
X8.15Y-3.4
X8.15Y-3.5
X8.15Y-3.6
X8.15Y-3.7
X8.15Y-3.8
X8.15Y-3.9
X8.15Y-4.0
X8.15Y-4.1
X8.15Y-4.2
X8.15Y-4.3
X8.15Y-4.4
X8.15Y-4.5
X8.15Y-4.6
X8.15Y-4.7
X8.25Y-2.8
X8.25Y-2.9
X8.25Y-3.0
X8.25Y-3.1
X8.25Y-3.2
X8.25Y-3.3
X8.25Y-3.4
X8.25Y-3.5
X8.25Y-3.6
X8.25Y-3.7
X8.25Y-3.8
X8.25Y-3.9
X8.25Y-4.0
X8.25Y-4.1
X8.25Y-4.2
X8.25Y-4.3
X8.25Y-4.4
X8.25Y-4.5
X8.25Y-4.6
X8.25Y-4.7
X5.7Y-1.9
X5.7Y-2.0
X5.8Y-1.9
X5.8Y-2.0
X5.9Y-1.9
X5.9Y-2.0
X6.0Y-1.9
X6.0Y-2.0
X6.1Y-1.9
X6.1Y-2.0
X6.2Y-1.9
X6.2Y-2.0
X6.3Y-1.9
X6.3Y-2.0
X6.4Y-1.9
X6.4Y-2.0
X6.5Y-1.9
X6.5Y-2.0
X6.6Y-1.9
X6.6Y-2.0
X6.7Y-1.9
X6.7Y-2.0
X6.8Y-1.9
X6.8Y-2.0
X6.9Y-1.9
X6.9Y-2.0
X7.0Y-1.9
X7.0Y-2.0
X7.1Y-1.9
X7.1Y-2.0
X7.2Y-1.9
X7.2Y-2.0
X7.3Y-1.9
X7.3Y-2.0
X7.35Y-2.8
X7.35Y-2.9
X7.35Y-3.0
X7.35Y-3.1
X7.35Y-3.2
X7.35Y-3.3
X7.35Y-3.4
X7.35Y-3.5
X7.35Y-3.6
X7.35Y-3.7
X7.35Y-3.8
X7.35Y-3.9
X7.35Y-4.0
X7.35Y-4.1
X7.35Y-4.2
X7.35Y-4.3
X7.35Y-4.4
X7.35Y-4.5
X7.35Y-4.6
X7.35Y-4.7
X7.45Y-2.8
X7.45Y-2.9
X7.45Y-3.0
X7.45Y-3.1
X7.45Y-3.2
X7.45Y-3.3
X7.45Y-3.4
X7.45Y-3.5
X7.45Y-3.6
X7.45Y-3.7
X7.45Y-3.8
X7.45Y-3.9
X7.45Y-4.0
X7.45Y-4.1
X7.45Y-4.2
X7.45Y-4.3
X7.45Y-4.4
X7.45Y-4.5
X7.45Y-4.6
X7.45Y-4.7
T6
X7.65Y-2.0
X7.6697Y-2.2874
X7.8311Y-1.8465
X7.9295Y-2.1142
X8.0358Y-2.1614
T7
X3.5744Y-4.3531
X3.5744Y-4.7469
X3.9681Y-4.2547
X3.9681Y-4.55
X3.9681Y-4.8453
X4.0665Y-4.3531
X4.0665Y-4.7469
X3.5744Y-3.5531
X3.5744Y-3.9469
X3.9681Y-3.4547
X3.9681Y-3.75
X3.9681Y-4.0453
X4.0665Y-3.5531
X4.0665Y-3.9469
T8
X5.2Y-1.925
X5.3559Y-1.925
T9
X8.25Y-5.35
X8.25Y-1.875
X3.625Y-5.35
X3.625Y-1.875
X6.026Y-5.0559
X7.0102Y-5.0559
X4.726Y-5.0559
X5.7102Y-5.0559
T10
X4.0516Y-2.085
X4.2484Y-2.085
T3
G00X3.8646Y-1.939
M15
G01X3.8646Y-1.8917
M16
G05
G00X3.8646Y-2.1854
M15
G01X3.8646Y-2.1146
M16
G05
G00X4.4354Y-1.939
M15
G01X4.4354Y-1.8917
M16
G05
G00X4.4354Y-2.1854
M15
G01X4.4354Y-2.1146
M16
G05
T4
G00X4.665Y-1.9925
M15
G01X4.665Y-2.0713
M16
G05
G00X4.8894Y-1.9138
M15
G01X4.8106Y-1.9138
M16
G05
G00X4.8894Y-2.15
M15
G01X4.8106Y-2.15
M16
G05
T0
M30
