G04 #@! TF.GenerationSoftware,KiCad,Pcbnew,(5.1.5-0-10_14)*
G04 #@! TF.CreationDate,2020-02-16T14:34:08+09:00*
G04 #@! TF.ProjectId,F68K-IO,4636384b-2d49-44f2-9e6b-696361645f70,rev?*
G04 #@! TF.SameCoordinates,Original*
G04 #@! TF.FileFunction,Paste,Top*
G04 #@! TF.FilePolarity,Positive*
%FSLAX46Y46*%
G04 Gerber Fmt 4.6, Leading zero omitted, Abs format (unit mm)*
G04 Created by KiCad (PCBNEW (5.1.5-0-10_14)) date 2020-02-16 14:34:08*
%MOMM*%
%LPD*%
G04 APERTURE LIST*
%ADD10R,0.300000X2.600000*%
%ADD11C,0.100000*%
G04 APERTURE END LIST*
D10*
X109910000Y-55370000D03*
X109410000Y-55370000D03*
X108910000Y-55370000D03*
X108410000Y-55370000D03*
X107910000Y-55370000D03*
X107410000Y-55370000D03*
X106910000Y-55370000D03*
X106410000Y-55370000D03*
X105910000Y-55370000D03*
X105410000Y-55370000D03*
X104910000Y-55370000D03*
X104410000Y-55370000D03*
X103910000Y-55370000D03*
X103410000Y-55370000D03*
X102910000Y-55370000D03*
X102410000Y-55370000D03*
X101910000Y-55370000D03*
X101410000Y-55370000D03*
X100910000Y-55370000D03*
D11*
G36*
X125189504Y-88571204D02*
G01*
X125213773Y-88574804D01*
X125237571Y-88580765D01*
X125260671Y-88589030D01*
X125282849Y-88599520D01*
X125303893Y-88612133D01*
X125323598Y-88626747D01*
X125341777Y-88643223D01*
X125358253Y-88661402D01*
X125372867Y-88681107D01*
X125385480Y-88702151D01*
X125395970Y-88724329D01*
X125404235Y-88747429D01*
X125410196Y-88771227D01*
X125413796Y-88795496D01*
X125415000Y-88820000D01*
X125415000Y-91520000D01*
X125413796Y-91544504D01*
X125410196Y-91568773D01*
X125404235Y-91592571D01*
X125395970Y-91615671D01*
X125385480Y-91637849D01*
X125372867Y-91658893D01*
X125358253Y-91678598D01*
X125341777Y-91696777D01*
X125323598Y-91713253D01*
X125303893Y-91727867D01*
X125282849Y-91740480D01*
X125260671Y-91750970D01*
X125237571Y-91759235D01*
X125213773Y-91765196D01*
X125189504Y-91768796D01*
X125165000Y-91770000D01*
X121215000Y-91770000D01*
X121190496Y-91768796D01*
X121166227Y-91765196D01*
X121142429Y-91759235D01*
X121119329Y-91750970D01*
X121097151Y-91740480D01*
X121076107Y-91727867D01*
X121056402Y-91713253D01*
X121038223Y-91696777D01*
X121021747Y-91678598D01*
X121007133Y-91658893D01*
X120994520Y-91637849D01*
X120984030Y-91615671D01*
X120975765Y-91592571D01*
X120969804Y-91568773D01*
X120966204Y-91544504D01*
X120965000Y-91520000D01*
X120965000Y-88820000D01*
X120966204Y-88795496D01*
X120969804Y-88771227D01*
X120975765Y-88747429D01*
X120984030Y-88724329D01*
X120994520Y-88702151D01*
X121007133Y-88681107D01*
X121021747Y-88661402D01*
X121038223Y-88643223D01*
X121056402Y-88626747D01*
X121076107Y-88612133D01*
X121097151Y-88599520D01*
X121119329Y-88589030D01*
X121142429Y-88580765D01*
X121166227Y-88574804D01*
X121190496Y-88571204D01*
X121215000Y-88570000D01*
X125165000Y-88570000D01*
X125189504Y-88571204D01*
G37*
G36*
X125189504Y-83371204D02*
G01*
X125213773Y-83374804D01*
X125237571Y-83380765D01*
X125260671Y-83389030D01*
X125282849Y-83399520D01*
X125303893Y-83412133D01*
X125323598Y-83426747D01*
X125341777Y-83443223D01*
X125358253Y-83461402D01*
X125372867Y-83481107D01*
X125385480Y-83502151D01*
X125395970Y-83524329D01*
X125404235Y-83547429D01*
X125410196Y-83571227D01*
X125413796Y-83595496D01*
X125415000Y-83620000D01*
X125415000Y-86320000D01*
X125413796Y-86344504D01*
X125410196Y-86368773D01*
X125404235Y-86392571D01*
X125395970Y-86415671D01*
X125385480Y-86437849D01*
X125372867Y-86458893D01*
X125358253Y-86478598D01*
X125341777Y-86496777D01*
X125323598Y-86513253D01*
X125303893Y-86527867D01*
X125282849Y-86540480D01*
X125260671Y-86550970D01*
X125237571Y-86559235D01*
X125213773Y-86565196D01*
X125189504Y-86568796D01*
X125165000Y-86570000D01*
X121215000Y-86570000D01*
X121190496Y-86568796D01*
X121166227Y-86565196D01*
X121142429Y-86559235D01*
X121119329Y-86550970D01*
X121097151Y-86540480D01*
X121076107Y-86527867D01*
X121056402Y-86513253D01*
X121038223Y-86496777D01*
X121021747Y-86478598D01*
X121007133Y-86458893D01*
X120994520Y-86437849D01*
X120984030Y-86415671D01*
X120975765Y-86392571D01*
X120969804Y-86368773D01*
X120966204Y-86344504D01*
X120965000Y-86320000D01*
X120965000Y-83620000D01*
X120966204Y-83595496D01*
X120969804Y-83571227D01*
X120975765Y-83547429D01*
X120984030Y-83524329D01*
X120994520Y-83502151D01*
X121007133Y-83481107D01*
X121021747Y-83461402D01*
X121038223Y-83443223D01*
X121056402Y-83426747D01*
X121076107Y-83412133D01*
X121097151Y-83399520D01*
X121119329Y-83389030D01*
X121142429Y-83380765D01*
X121166227Y-83374804D01*
X121190496Y-83371204D01*
X121215000Y-83370000D01*
X125165000Y-83370000D01*
X125189504Y-83371204D01*
G37*
M02*
